# xmcd
#
# Track frame offsets:
#	150
#	18794
#	36696
#	51716
#	69196
#	84917
#	100595
#	116910
#	136097
#	154263
#
# Disc length: 2422 seconds
#
# Revision: 0
# Processed by: cddbd v1.5.2PL0 Copyright (c) Steve Scherf et al.
# Submitted via: EasyCDDAExtractor 9.1.3.1
#
DISCID=8009740a
DTITLE=Ronnie Milsap - Keyed Up
DYEAR=1983
DGENRE=Country
TTITLE0=Stranger In My House
TTITLE1=Show Her
TTITLE2=Don't Your Mem'ry Ever Sleep At Night
TTITLE3=Watch Out For The Other Guy
TTITLE4=I'm Just A Redneck At Heart
TTITLE5=Don't You Know How Much I Love You
TTITLE6=Feelings Change
TTITLE7=Like Children I Have Known
TTITLE8=Is It Over
TTITLE9=We're Here To Love
EXTD=
EXTT0=
EXTT1=
EXTT2=
EXTT3=
EXTT4=
EXTT5=
EXTT6=
EXTT7=
EXTT8=
EXTT9=
PLAYORDER=
